<mxfile host="app.diagrams.net" agent="Mozilla/5.0 (X11; Linux x86_64; rv:138.0) Gecko/20100101 Firefox/138.0" version="27.1.1">
  <diagram name="Page-1" id="kj00pv-wOyioAJ5D3fAY">
    <mxGraphModel dx="2175" dy="412" grid="0" gridSize="10" guides="1" tooltips="1" connect="1" arrows="1" fold="1" page="0" pageScale="1" pageWidth="850" pageHeight="1100" math="0" shadow="0">
      <root>
        <mxCell id="0" />
        <mxCell id="1" parent="0" />
        <mxCell id="R294HOnMax8EMjDLNMVa-26" value="" style="rounded=0;whiteSpace=wrap;html=1;" parent="1" vertex="1">
          <mxGeometry x="-427" y="602" width="120" height="60" as="geometry" />
        </mxCell>
        <mxCell id="R294HOnMax8EMjDLNMVa-27" value="" style="shape=process;whiteSpace=wrap;html=1;backgroundOutline=1;" parent="1" vertex="1">
          <mxGeometry x="-427" y="678" width="120" height="60" as="geometry" />
        </mxCell>
        <mxCell id="R294HOnMax8EMjDLNMVa-29" value="" style="shape=table;startSize=8;container=1;collapsible=1;childLayout=tableLayout;fixedRows=1;rowLines=0;fontStyle=1;align=center;resizeLast=1;html=1;whiteSpace=wrap;" parent="1" vertex="1">
          <mxGeometry x="-427.17" y="751" width="120.16666666666657" height="60.15999999999997" as="geometry" />
        </mxCell>
        <mxCell id="R294HOnMax8EMjDLNMVa-33" value="" style="shape=tableRow;horizontal=0;startSize=0;swimlaneHead=0;swimlaneBody=0;fillColor=none;collapsible=0;dropTarget=0;points=[[0,0.5],[1,0.5]];portConstraint=eastwest;top=0;left=0;right=0;bottom=1;html=1;" parent="R294HOnMax8EMjDLNMVa-29" vertex="1">
          <mxGeometry y="8" width="120.16666666666657" height="45" as="geometry" />
        </mxCell>
        <mxCell id="R294HOnMax8EMjDLNMVa-34" value="" style="shape=partialRectangle;connectable=1;fillColor=none;top=0;left=0;bottom=0;right=0;fontStyle=1;overflow=hidden;html=1;whiteSpace=wrap;movable=1;resizable=1;rotatable=1;deletable=1;editable=1;locked=0;" parent="R294HOnMax8EMjDLNMVa-33" vertex="1">
          <mxGeometry width="120.16666666666657" height="45" as="geometry">
            <mxRectangle width="120.16666666666657" height="45" as="alternateBounds" />
          </mxGeometry>
        </mxCell>
        <mxCell id="R294HOnMax8EMjDLNMVa-42" value="" style="ellipse;whiteSpace=wrap;html=1;" parent="1" vertex="1">
          <mxGeometry x="-427" y="503" width="120" height="80" as="geometry" />
        </mxCell>
        <mxCell id="R294HOnMax8EMjDLNMVa-51" style="rounded=0;orthogonalLoop=1;jettySize=auto;html=1;exitX=0.5;exitY=1;exitDx=0;exitDy=0;entryX=0.5;entryY=0;entryDx=0;entryDy=0;endArrow=classic;startFill=0;endFill=1;" parent="1" source="R294HOnMax8EMjDLNMVa-43" target="R294HOnMax8EMjDLNMVa-48" edge="1">
          <mxGeometry relative="1" as="geometry" />
        </mxCell>
        <mxCell id="R294HOnMax8EMjDLNMVa-57" style="rounded=0;orthogonalLoop=1;jettySize=auto;html=1;entryX=0.5;entryY=0;entryDx=0;entryDy=0;exitX=0.5;exitY=1;exitDx=0;exitDy=0;" parent="1" source="R294HOnMax8EMjDLNMVa-43" target="R294HOnMax8EMjDLNMVa-56" edge="1">
          <mxGeometry relative="1" as="geometry" />
        </mxCell>
        <mxCell id="R294HOnMax8EMjDLNMVa-59" style="rounded=0;orthogonalLoop=1;jettySize=auto;html=1;exitX=0.5;exitY=1;exitDx=0;exitDy=0;entryX=0.5;entryY=0;entryDx=0;entryDy=0;" parent="1" source="R294HOnMax8EMjDLNMVa-43" target="R294HOnMax8EMjDLNMVa-58" edge="1">
          <mxGeometry relative="1" as="geometry" />
        </mxCell>
        <mxCell id="R294HOnMax8EMjDLNMVa-71" style="rounded=0;orthogonalLoop=1;jettySize=auto;html=1;exitX=0.5;exitY=1;exitDx=0;exitDy=0;entryX=0.5;entryY=0;entryDx=0;entryDy=0;" parent="1" source="R294HOnMax8EMjDLNMVa-43" target="R294HOnMax8EMjDLNMVa-70" edge="1">
          <mxGeometry relative="1" as="geometry" />
        </mxCell>
        <mxCell id="R294HOnMax8EMjDLNMVa-43" value="Виджет" style="rounded=0;whiteSpace=wrap;html=1;" parent="1" vertex="1">
          <mxGeometry x="134.17000000000002" y="494" width="120" height="60" as="geometry" />
        </mxCell>
        <mxCell id="R294HOnMax8EMjDLNMVa-48" value="" style="shape=table;startSize=8;container=1;collapsible=1;childLayout=tableLayout;fixedRows=1;rowLines=0;fontStyle=0;align=center;resizeLast=1;html=1;whiteSpace=wrap;" parent="1" vertex="1">
          <mxGeometry x="-165.00000000000003" y="671.16" width="120.16666666666657" height="60.15999999999997" as="geometry" />
        </mxCell>
        <mxCell id="R294HOnMax8EMjDLNMVa-49" value="" style="shape=tableRow;horizontal=0;startSize=0;swimlaneHead=0;swimlaneBody=0;fillColor=none;collapsible=0;dropTarget=0;points=[[0,0.5],[1,0.5]];portConstraint=eastwest;top=0;left=0;right=0;bottom=1;html=1;fontStyle=0" parent="R294HOnMax8EMjDLNMVa-48" vertex="1">
          <mxGeometry y="8" width="120.16666666666657" height="45" as="geometry" />
        </mxCell>
        <mxCell id="R294HOnMax8EMjDLNMVa-50" value="Таблица фильтрации" style="shape=partialRectangle;connectable=1;fillColor=none;top=0;left=0;bottom=0;right=0;fontStyle=0;overflow=hidden;html=1;whiteSpace=wrap;movable=1;resizable=1;rotatable=1;deletable=1;editable=1;locked=0;" parent="R294HOnMax8EMjDLNMVa-49" vertex="1">
          <mxGeometry width="120.16666666666657" height="45" as="geometry">
            <mxRectangle width="120.16666666666657" height="45" as="alternateBounds" />
          </mxGeometry>
        </mxCell>
        <mxCell id="R294HOnMax8EMjDLNMVa-63" style="rounded=0;orthogonalLoop=1;jettySize=auto;html=1;exitX=0.5;exitY=1;exitDx=0;exitDy=0;entryX=0.5;entryY=0;entryDx=0;entryDy=0;" parent="1" source="R294HOnMax8EMjDLNMVa-56" target="R294HOnMax8EMjDLNMVa-60" edge="1">
          <mxGeometry relative="1" as="geometry" />
        </mxCell>
        <mxCell id="R294HOnMax8EMjDLNMVa-56" value="Поиск" style="rounded=0;whiteSpace=wrap;html=1;" parent="1" vertex="1">
          <mxGeometry x="43" y="671.3199999999999" width="120" height="60" as="geometry" />
        </mxCell>
        <mxCell id="R294HOnMax8EMjDLNMVa-69" style="rounded=0;orthogonalLoop=1;jettySize=auto;html=1;entryX=0.5;entryY=0;entryDx=0;entryDy=0;exitX=0.5;exitY=1;exitDx=0;exitDy=0;" parent="1" source="R294HOnMax8EMjDLNMVa-58" target="R294HOnMax8EMjDLNMVa-60" edge="1">
          <mxGeometry relative="1" as="geometry" />
        </mxCell>
        <mxCell id="R294HOnMax8EMjDLNMVa-58" value="Создание записи" style="rounded=0;whiteSpace=wrap;html=1;" parent="1" vertex="1">
          <mxGeometry x="242" y="671.16" width="120" height="60" as="geometry" />
        </mxCell>
        <mxCell id="R294HOnMax8EMjDLNMVa-60" value="" style="shape=table;startSize=8;container=1;collapsible=1;childLayout=tableLayout;fixedRows=1;rowLines=0;fontStyle=0;align=center;resizeLast=1;html=1;whiteSpace=wrap;" parent="1" vertex="1">
          <mxGeometry x="133.99999999999997" y="1053" width="120.16666666666657" height="60.15999999999997" as="geometry" />
        </mxCell>
        <mxCell id="R294HOnMax8EMjDLNMVa-61" value="" style="shape=tableRow;horizontal=0;startSize=0;swimlaneHead=0;swimlaneBody=0;fillColor=none;collapsible=0;dropTarget=0;points=[[0,0.5],[1,0.5]];portConstraint=eastwest;top=0;left=0;right=0;bottom=1;html=1;fontStyle=0" parent="R294HOnMax8EMjDLNMVa-60" vertex="1">
          <mxGeometry y="8" width="120.16666666666657" height="45" as="geometry" />
        </mxCell>
        <mxCell id="R294HOnMax8EMjDLNMVa-62" value="Манипулирование БД" style="shape=partialRectangle;connectable=1;fillColor=none;top=0;left=0;bottom=0;right=0;fontStyle=0;overflow=hidden;html=1;whiteSpace=wrap;movable=1;resizable=1;rotatable=1;deletable=1;editable=1;locked=0;" parent="R294HOnMax8EMjDLNMVa-61" vertex="1">
          <mxGeometry width="120.16666666666657" height="45" as="geometry">
            <mxRectangle width="120.16666666666657" height="45" as="alternateBounds" />
          </mxGeometry>
        </mxCell>
        <mxCell id="R294HOnMax8EMjDLNMVa-68" style="rounded=0;orthogonalLoop=1;jettySize=auto;html=1;exitX=0.5;exitY=1;exitDx=0;exitDy=0;entryX=0.5;entryY=0;entryDx=0;entryDy=0;" parent="1" source="R294HOnMax8EMjDLNMVa-64" target="R294HOnMax8EMjDLNMVa-60" edge="1">
          <mxGeometry relative="1" as="geometry" />
        </mxCell>
        <mxCell id="R294HOnMax8EMjDLNMVa-64" value="" style="shape=table;startSize=8;container=1;collapsible=1;childLayout=tableLayout;fixedRows=1;rowLines=0;fontStyle=0;align=center;resizeLast=1;html=1;whiteSpace=wrap;" parent="1" vertex="1">
          <mxGeometry x="-165.00000000000003" y="869.0000000000001" width="120.16666666666657" height="60.15999999999997" as="geometry" />
        </mxCell>
        <mxCell id="R294HOnMax8EMjDLNMVa-65" value="" style="shape=tableRow;horizontal=0;startSize=0;swimlaneHead=0;swimlaneBody=0;fillColor=none;collapsible=0;dropTarget=0;points=[[0,0.5],[1,0.5]];portConstraint=eastwest;top=0;left=0;right=0;bottom=1;html=1;fontStyle=0" parent="R294HOnMax8EMjDLNMVa-64" vertex="1">
          <mxGeometry y="8" width="120.16666666666657" height="45" as="geometry" />
        </mxCell>
        <mxCell id="R294HOnMax8EMjDLNMVa-66" value="Запрос данных из БД" style="shape=partialRectangle;connectable=1;fillColor=none;top=0;left=0;bottom=0;right=0;fontStyle=0;overflow=hidden;html=1;whiteSpace=wrap;movable=1;resizable=1;rotatable=1;deletable=1;editable=1;locked=0;" parent="R294HOnMax8EMjDLNMVa-65" vertex="1">
          <mxGeometry width="120.16666666666657" height="45" as="geometry">
            <mxRectangle width="120.16666666666657" height="45" as="alternateBounds" />
          </mxGeometry>
        </mxCell>
        <mxCell id="R294HOnMax8EMjDLNMVa-67" style="rounded=0;orthogonalLoop=1;jettySize=auto;html=1;entryX=0.5;entryY=0;entryDx=0;entryDy=0;exitX=0.5;exitY=1;exitDx=0;exitDy=0;" parent="1" source="R294HOnMax8EMjDLNMVa-48" target="R294HOnMax8EMjDLNMVa-64" edge="1">
          <mxGeometry relative="1" as="geometry">
            <mxPoint y="754" as="sourcePoint" />
          </mxGeometry>
        </mxCell>
        <mxCell id="R294HOnMax8EMjDLNMVa-72" style="rounded=0;orthogonalLoop=1;jettySize=auto;html=1;exitX=0.5;exitY=1;exitDx=0;exitDy=0;entryX=0.5;entryY=0;entryDx=0;entryDy=0;" parent="1" source="R294HOnMax8EMjDLNMVa-70" target="R294HOnMax8EMjDLNMVa-60" edge="1">
          <mxGeometry relative="1" as="geometry" />
        </mxCell>
        <mxCell id="R294HOnMax8EMjDLNMVa-70" value="Изменение записи" style="rounded=0;whiteSpace=wrap;html=1;" parent="1" vertex="1">
          <mxGeometry x="453" y="671.16" width="120" height="60" as="geometry" />
        </mxCell>
        <mxCell id="R294HOnMax8EMjDLNMVa-79" value="" style="endArrow=classic;html=1;rounded=0;startArrow=oval;startFill=0;" parent="1" edge="1">
          <mxGeometry width="50" height="50" relative="1" as="geometry">
            <mxPoint x="-22" y="623" as="sourcePoint" />
            <mxPoint x="-80" y="652" as="targetPoint" />
          </mxGeometry>
        </mxCell>
        <mxCell id="R294HOnMax8EMjDLNMVa-80" value="массив" style="text;html=1;align=center;verticalAlign=middle;resizable=0;points=[];autosize=1;strokeColor=none;fillColor=none;" parent="1" vertex="1">
          <mxGeometry x="-40" y="650" width="58" height="26" as="geometry" />
        </mxCell>
        <mxCell id="R294HOnMax8EMjDLNMVa-81" value="" style="endArrow=classic;html=1;rounded=0;startArrow=oval;startFill=0;" parent="1" edge="1">
          <mxGeometry width="50" height="50" relative="1" as="geometry">
            <mxPoint x="-52" y="664" as="sourcePoint" />
            <mxPoint x="6" y="635" as="targetPoint" />
          </mxGeometry>
        </mxCell>
        <mxCell id="R294HOnMax8EMjDLNMVa-82" value="запрос" style="text;html=1;align=center;verticalAlign=middle;resizable=0;points=[];autosize=1;strokeColor=none;fillColor=none;" parent="1" vertex="1">
          <mxGeometry x="-100.83" y="617" width="56" height="26" as="geometry" />
        </mxCell>
        <mxCell id="R294HOnMax8EMjDLNMVa-86" value="" style="endArrow=classic;html=1;rounded=0;startArrow=oval;startFill=0;" parent="1" edge="1">
          <mxGeometry width="50" height="50" relative="1" as="geometry">
            <mxPoint x="-116" y="768.08" as="sourcePoint" />
            <mxPoint x="-116" y="819.08" as="targetPoint" />
          </mxGeometry>
        </mxCell>
        <mxCell id="R294HOnMax8EMjDLNMVa-87" value="массив" style="text;html=1;align=center;verticalAlign=middle;resizable=0;points=[];autosize=1;strokeColor=none;fillColor=none;" parent="1" vertex="1">
          <mxGeometry x="-89" y="778" width="58" height="26" as="geometry" />
        </mxCell>
        <mxCell id="R294HOnMax8EMjDLNMVa-89" value="фильтр" style="text;html=1;align=center;verticalAlign=middle;resizable=0;points=[];autosize=1;strokeColor=none;fillColor=none;" parent="1" vertex="1">
          <mxGeometry x="-179" y="778" width="59" height="26" as="geometry" />
        </mxCell>
        <mxCell id="R294HOnMax8EMjDLNMVa-91" value="" style="endArrow=classic;html=1;rounded=0;startArrow=oval;startFill=0;" parent="1" edge="1">
          <mxGeometry width="50" height="50" relative="1" as="geometry">
            <mxPoint x="-93" y="811.1600000000001" as="sourcePoint" />
            <mxPoint x="-93" y="760.1600000000001" as="targetPoint" />
          </mxGeometry>
        </mxCell>
        <mxCell id="R294HOnMax8EMjDLNMVa-92" value="" style="endArrow=classic;html=1;rounded=0;startArrow=oval;startFill=0;" parent="1" edge="1">
          <mxGeometry width="50" height="50" relative="1" as="geometry">
            <mxPoint x="11" y="989.0000000000001" as="sourcePoint" />
            <mxPoint x="61" y="1012" as="targetPoint" />
          </mxGeometry>
        </mxCell>
        <mxCell id="R294HOnMax8EMjDLNMVa-93" value="массив" style="text;html=1;align=center;verticalAlign=middle;resizable=0;points=[];autosize=1;strokeColor=none;fillColor=none;" parent="1" vertex="1">
          <mxGeometry x="33" y="954" width="58" height="26" as="geometry" />
        </mxCell>
        <mxCell id="R294HOnMax8EMjDLNMVa-94" value="запрос" style="text;html=1;align=center;verticalAlign=middle;resizable=0;points=[];autosize=1;strokeColor=none;fillColor=none;" parent="1" vertex="1">
          <mxGeometry x="-10" y="1009" width="56" height="26" as="geometry" />
        </mxCell>
        <mxCell id="R294HOnMax8EMjDLNMVa-95" value="" style="endArrow=classic;html=1;rounded=0;startArrow=oval;startFill=0;" parent="1" edge="1">
          <mxGeometry width="50" height="50" relative="1" as="geometry">
            <mxPoint x="66" y="992" as="sourcePoint" />
            <mxPoint x="15" y="963" as="targetPoint" />
          </mxGeometry>
        </mxCell>
        <mxCell id="R294HOnMax8EMjDLNMVa-96" value="" style="endArrow=classic;html=1;rounded=0;startArrow=oval;startFill=0;" parent="1" edge="1">
          <mxGeometry width="50" height="50" relative="1" as="geometry">
            <mxPoint x="126" y="862" as="sourcePoint" />
            <mxPoint x="149" y="925" as="targetPoint" />
          </mxGeometry>
        </mxCell>
        <mxCell id="R294HOnMax8EMjDLNMVa-97" value="массив" style="text;html=1;align=center;verticalAlign=middle;resizable=0;points=[];autosize=1;strokeColor=none;fillColor=none;" parent="1" vertex="1">
          <mxGeometry x="146.00000000000003" y="853" width="58" height="26" as="geometry" />
        </mxCell>
        <mxCell id="R294HOnMax8EMjDLNMVa-98" value="запрос" style="text;html=1;align=center;verticalAlign=middle;resizable=0;points=[];autosize=1;strokeColor=none;fillColor=none;" parent="1" vertex="1">
          <mxGeometry x="78.17" y="890" width="56" height="26" as="geometry" />
        </mxCell>
        <mxCell id="R294HOnMax8EMjDLNMVa-99" value="" style="endArrow=classic;html=1;rounded=0;startArrow=oval;startFill=0;" parent="1" edge="1">
          <mxGeometry width="50" height="50" relative="1" as="geometry">
            <mxPoint x="168" y="912.5" as="sourcePoint" />
            <mxPoint x="146" y="851.5" as="targetPoint" />
          </mxGeometry>
        </mxCell>
        <mxCell id="R294HOnMax8EMjDLNMVa-101" value="" style="endArrow=classic;html=1;rounded=0;startArrow=oval;startFill=0;" parent="1" edge="1">
          <mxGeometry width="50" height="50" relative="1" as="geometry">
            <mxPoint x="254.17" y="844" as="sourcePoint" />
            <mxPoint x="232.17" y="910" as="targetPoint" />
          </mxGeometry>
        </mxCell>
        <mxCell id="R294HOnMax8EMjDLNMVa-102" value="массив" style="text;html=1;align=center;verticalAlign=middle;resizable=0;points=[];autosize=1;strokeColor=none;fillColor=none;" parent="1" vertex="1">
          <mxGeometry x="261.00000000000006" y="879" width="58" height="26" as="geometry" />
        </mxCell>
        <mxCell id="R294HOnMax8EMjDLNMVa-103" value="запрос" style="text;html=1;align=center;verticalAlign=middle;resizable=0;points=[];autosize=1;strokeColor=none;fillColor=none;" parent="1" vertex="1">
          <mxGeometry x="189" y="869" width="56" height="26" as="geometry" />
        </mxCell>
        <mxCell id="R294HOnMax8EMjDLNMVa-104" value="" style="endArrow=classic;html=1;rounded=0;startArrow=oval;startFill=0;" parent="1" edge="1">
          <mxGeometry width="50" height="50" relative="1" as="geometry">
            <mxPoint x="251" y="912" as="sourcePoint" />
            <mxPoint x="275" y="846" as="targetPoint" />
          </mxGeometry>
        </mxCell>
        <mxCell id="R294HOnMax8EMjDLNMVa-105" value="" style="endArrow=classic;html=1;rounded=0;startArrow=oval;startFill=0;" parent="1" edge="1">
          <mxGeometry width="50" height="50" relative="1" as="geometry">
            <mxPoint x="385" y="843" as="sourcePoint" />
            <mxPoint x="333" y="897" as="targetPoint" />
          </mxGeometry>
        </mxCell>
        <mxCell id="R294HOnMax8EMjDLNMVa-106" value="" style="endArrow=classic;html=1;rounded=0;startArrow=oval;startFill=0;" parent="1" edge="1">
          <mxGeometry width="50" height="50" relative="1" as="geometry">
            <mxPoint x="356" y="905" as="sourcePoint" />
            <mxPoint x="407" y="850" as="targetPoint" />
          </mxGeometry>
        </mxCell>
        <mxCell id="R294HOnMax8EMjDLNMVa-107" value="запрос" style="text;html=1;align=center;verticalAlign=middle;resizable=0;points=[];autosize=1;strokeColor=none;fillColor=none;" parent="1" vertex="1">
          <mxGeometry x="306" y="846" width="56" height="26" as="geometry" />
        </mxCell>
        <mxCell id="R294HOnMax8EMjDLNMVa-108" value="массив" style="text;html=1;align=center;verticalAlign=middle;resizable=0;points=[];autosize=1;strokeColor=none;fillColor=none;" parent="1" vertex="1">
          <mxGeometry x="375.00000000000006" y="879" width="58" height="26" as="geometry" />
        </mxCell>
        <mxCell id="R294HOnMax8EMjDLNMVa-109" value="" style="endArrow=classic;html=1;rounded=0;startArrow=oval;startFill=0;" parent="1" edge="1">
          <mxGeometry width="50" height="50" relative="1" as="geometry">
            <mxPoint x="145" y="599" as="sourcePoint" />
            <mxPoint x="108" y="643" as="targetPoint" />
          </mxGeometry>
        </mxCell>
        <mxCell id="R294HOnMax8EMjDLNMVa-110" value="массив" style="text;html=1;align=center;verticalAlign=middle;resizable=0;points=[];autosize=1;strokeColor=none;fillColor=none;" parent="1" vertex="1">
          <mxGeometry x="134" y="628" width="58" height="26" as="geometry" />
        </mxCell>
        <mxCell id="R294HOnMax8EMjDLNMVa-111" value="" style="endArrow=classic;html=1;rounded=0;startArrow=oval;startFill=0;" parent="1" edge="1">
          <mxGeometry width="50" height="50" relative="1" as="geometry">
            <mxPoint x="127" y="649" as="sourcePoint" />
            <mxPoint x="167" y="607" as="targetPoint" />
          </mxGeometry>
        </mxCell>
        <mxCell id="R294HOnMax8EMjDLNMVa-112" value="запрос" style="text;html=1;align=center;verticalAlign=middle;resizable=0;points=[];autosize=1;strokeColor=none;fillColor=none;" parent="1" vertex="1">
          <mxGeometry x="78.17" y="602" width="56" height="26" as="geometry" />
        </mxCell>
        <mxCell id="R294HOnMax8EMjDLNMVa-113" value="" style="endArrow=classic;html=1;rounded=0;startArrow=oval;startFill=0;" parent="1" edge="1">
          <mxGeometry width="50" height="50" relative="1" as="geometry">
            <mxPoint x="230" y="610" as="sourcePoint" />
            <mxPoint x="273" y="661" as="targetPoint" />
          </mxGeometry>
        </mxCell>
        <mxCell id="R294HOnMax8EMjDLNMVa-114" value="запись" style="text;html=1;align=center;verticalAlign=middle;resizable=0;points=[];autosize=1;strokeColor=none;fillColor=none;" parent="1" vertex="1">
          <mxGeometry x="204.00000000000003" y="628" width="56" height="26" as="geometry" />
        </mxCell>
        <mxCell id="R294HOnMax8EMjDLNMVa-115" value="" style="endArrow=classic;html=1;rounded=0;startArrow=oval;startFill=0;" parent="1" edge="1">
          <mxGeometry width="50" height="50" relative="1" as="geometry">
            <mxPoint x="301" y="653" as="sourcePoint" />
            <mxPoint x="258" y="602" as="targetPoint" />
          </mxGeometry>
        </mxCell>
        <mxCell id="R294HOnMax8EMjDLNMVa-116" value="статус" style="text;html=1;align=center;verticalAlign=middle;resizable=0;points=[];autosize=1;strokeColor=none;fillColor=none;" parent="1" vertex="1">
          <mxGeometry x="286" y="617" width="53" height="26" as="geometry" />
        </mxCell>
        <mxCell id="R294HOnMax8EMjDLNMVa-117" value="данные" style="text;html=1;align=center;verticalAlign=middle;resizable=0;points=[];autosize=1;strokeColor=none;fillColor=none;" parent="1" vertex="1">
          <mxGeometry x="355" y="639" width="60" height="26" as="geometry" />
        </mxCell>
        <mxCell id="R294HOnMax8EMjDLNMVa-118" value="" style="endArrow=classic;html=1;rounded=0;startArrow=oval;startFill=0;" parent="1" edge="1">
          <mxGeometry width="50" height="50" relative="1" as="geometry">
            <mxPoint x="365" y="628" as="sourcePoint" />
            <mxPoint x="432" y="655" as="targetPoint" />
          </mxGeometry>
        </mxCell>
        <mxCell id="R294HOnMax8EMjDLNMVa-119" value="" style="endArrow=classic;html=1;rounded=0;startArrow=oval;startFill=0;" parent="1" edge="1">
          <mxGeometry width="50" height="50" relative="1" as="geometry">
            <mxPoint x="445" y="634" as="sourcePoint" />
            <mxPoint x="378" y="607" as="targetPoint" />
          </mxGeometry>
        </mxCell>
        <mxCell id="R294HOnMax8EMjDLNMVa-120" value="статус" style="text;html=1;align=center;verticalAlign=middle;resizable=0;points=[];autosize=1;strokeColor=none;fillColor=none;" parent="1" vertex="1">
          <mxGeometry x="401" y="600" width="53" height="26" as="geometry" />
        </mxCell>
      </root>
    </mxGraphModel>
  </diagram>
</mxfile>
